<!DOCTYPE svg PUBLIC "-//W3C//DTD SVG 1.1//EN" "http://www.w3.org/Graphics/SVG/1.1/DTD/svg11.dtd">
<!-- Uploaded to: SVG Repo, www.svgrepo.com, Transformed by: SVG Repo Mixer Tools -->
<svg fill="#ffffff" width="800px" height="800px" viewBox="0 0 256 256" id="Flat" xmlns="http://www.w3.org/2000/svg" stroke="#ffffff" stroke-width="0.00256">
<g id="SVGRepo_bgCarrier" stroke-width="0"/>
<g id="SVGRepo_tracerCarrier" stroke-linecap="round" stroke-linejoin="round"/>
<g id="SVGRepo_iconCarrier"> <path d="M216,76a12.01312,12.01312,0,0,0,12-12V48a12.01312,12.01312,0,0,0-12-12H40A12.01312,12.01312,0,0,0,28,48V64A12.01312,12.01312,0,0,0,40,76h4V180H32a4,4,0,0,0,0,8h92v24.40308a20,20,0,1,0,8,0V188h92a4,4,0,0,0,0-8H212V76ZM140,232a12,12,0,1,1-12-12A12.01312,12.01312,0,0,1,140,232ZM36,64V48a4.004,4.004,0,0,1,4-4H216a4.004,4.004,0,0,1,4,4V64a4.004,4.004,0,0,1-4,4H40A4.004,4.004,0,0,1,36,64ZM204,180H52V76H204Z"/> </g>
</svg>